<svg id="visual" viewBox="0 0 900 600" width="900" height="600" xmlns="http://www.w3.org/2000/svg" xmlns:xlink="http://www.w3.org/1999/xlink" version="1.1"><path d="M0 49L30 72C60 95 120 141 180 149C240 157 300 127 360 103C420 79 480 61 540 73C600 85 660 127 720 126C780 125 840 81 870 59L900 37L900 0L870 0C840 0 780 0 720 0C660 0 600 0 540 0C480 0 420 0 360 0C300 0 240 0 180 0C120 0 60 0 30 0L0 0Z" fill="#1c932d"></path><path d="M0 397L30 379C60 361 120 325 180 292C240 259 300 229 360 239C420 249 480 299 540 306C600 313 660 277 720 241C780 205 840 169 870 151L900 133L900 35L870 57C840 79 780 123 720 124C660 125 600 83 540 71C480 59 420 77 360 101C300 125 240 155 180 147C120 139 60 93 30 70L0 47Z" fill="#09721b"></path><path d="M0 469L30 483C60 497 120 525 180 531C240 537 300 521 360 517C420 513 480 521 540 520C600 519 660 509 720 512C780 515 840 531 870 539L900 547L900 131L870 149C840 167 780 203 720 239C660 275 600 311 540 304C480 297 420 247 360 237C300 227 240 257 180 290C120 323 60 359 30 377L0 395Z" fill="#005913"></path><path d="M0 601L30 601C60 601 120 601 180 601C240 601 300 601 360 601C420 601 480 601 540 601C600 601 660 601 720 601C780 601 840 601 870 601L900 601L900 545L870 537C840 529 780 513 720 510C660 507 600 517 540 518C480 519 420 511 360 515C300 519 240 535 180 529C120 523 60 495 30 481L0 467Z" fill="#004813"></path></svg>